<svg xmlns="http://www.w3.org/2000/svg" viewBox="0 0 222 222"><defs><style>.cls-1{opacity:0.63;}.cls-2{fill:#fff;}.cls-3{fill:none;stroke:#fff;stroke-miterlimit:10;stroke-width:8px;}</style></defs><title>Unmute</title><g id="Layer_2" data-name="Layer 2"><g id="Layer_1-2" data-name="Layer 1"><circle class="cls-1" cx="111" cy="111" r="111"/><g id="volume-mute"><path class="cls-2" d="M126,69.88v86L97.14,131.85a11.57,11.57,0,0,0-7.4-2.68H64.65V95.82H89.77A11.58,11.58,0,0,0,97,93.26l29-23.39M130.44,57a3.49,3.49,0,0,0-2.21.79L92,87a3.55,3.55,0,0,1-2.23.79H60.19a3.53,3.53,0,0,0-3.54,3.52v42.29a3.53,3.53,0,0,0,3.54,3.52H89.74A3.55,3.55,0,0,1,92,138l36.18,30.18a3.49,3.49,0,0,0,2.25.83,3.53,3.53,0,0,0,3.56-3.53V60.53A3.53,3.53,0,0,0,130.44,57Z"/></g><path class="cls-3" d="M150.66,139.73c13.09-16.47,12-39-2.32-50.46"/><path class="cls-3" d="M167.53,158.56c22.86-28.77,21-68.18-4.05-88.12"/></g></g></svg>